<svg xmlns="http://www.w3.org/2000/svg" width="1080" height="560">
<rect width="100%" height="100%" fill="white"/>
<text x="40" y="36" font-family="Arial, sans-serif" font-size="24" font-weight="700">Iteration 1 Detector Comparison (Holdout)</text>
<text x="40" y="58" font-family="Arial, sans-serif" font-size="13" fill="#555">Left: precision / recall / F1. Right: count MAE (lower is better).</text>
<line x1="90" y1="70" x2="90" y2="410" stroke="#333" stroke-width="1.2"/>
<line x1="90" y1="410" x2="470" y2="410" stroke="#333" stroke-width="1.2"/>
<line x1="85" y1="410.0" x2="470" y2="410.0" stroke="#e6e6e6" stroke-width="1"/>
<text x="76" y="414.0" text-anchor="end" font-family="Arial, sans-serif" font-size="11" fill="#555">0.00</text>
<line x1="85" y1="325.0" x2="470" y2="325.0" stroke="#e6e6e6" stroke-width="1"/>
<text x="76" y="329.0" text-anchor="end" font-family="Arial, sans-serif" font-size="11" fill="#555">0.25</text>
<line x1="85" y1="240.0" x2="470" y2="240.0" stroke="#e6e6e6" stroke-width="1"/>
<text x="76" y="244.0" text-anchor="end" font-family="Arial, sans-serif" font-size="11" fill="#555">0.50</text>
<line x1="85" y1="155.0" x2="470" y2="155.0" stroke="#e6e6e6" stroke-width="1"/>
<text x="76" y="159.0" text-anchor="end" font-family="Arial, sans-serif" font-size="11" fill="#555">0.75</text>
<line x1="85" y1="70.0" x2="470" y2="70.0" stroke="#e6e6e6" stroke-width="1"/>
<text x="76" y="74.0" text-anchor="end" font-family="Arial, sans-serif" font-size="11" fill="#555">1.00</text>
<rect x="109.0" y="132.7" width="28.1" height="277.3" fill="#ff7f0e" fill-opacity="0.45" rx="2"/>
<rect x="142.8" y="108.2" width="28.1" height="301.8" fill="#ff7f0e" fill-opacity="0.63" rx="2"/>
<rect x="176.6" y="120.9" width="28.1" height="289.1" fill="#ff7f0e" fill-opacity="0.81" rx="2"/>
<text x="148.4" y="428" text-anchor="middle" font-family="Arial, sans-serif" font-size="11">bg-sub</text>
<rect x="235.7" y="108.8" width="28.1" height="301.2" fill="#1f77b4" fill-opacity="0.45" rx="2"/>
<rect x="269.4" y="121.2" width="28.1" height="288.8" fill="#1f77b4" fill-opacity="0.63" rx="2"/>
<rect x="303.2" y="115.1" width="28.1" height="294.9" fill="#1f77b4" fill-opacity="0.81" rx="2"/>
<text x="275.1" y="428" text-anchor="middle" font-family="Arial, sans-serif" font-size="11">baseline</text>
<rect x="362.3" y="96.3" width="28.1" height="313.7" fill="#2ca02c" fill-opacity="0.45" rx="2"/>
<rect x="396.1" y="262.9" width="28.1" height="147.1" fill="#2ca02c" fill-opacity="0.63" rx="2"/>
<rect x="429.9" y="209.7" width="28.1" height="200.3" fill="#2ca02c" fill-opacity="0.81" rx="2"/>
<text x="401.7" y="428" text-anchor="middle" font-family="Arial, sans-serif" font-size="11">temp-med</text>
<text x="280.0" y="452" text-anchor="middle" font-family="Arial, sans-serif" font-size="13">Branch</text>
<text x="280.0" y="54" text-anchor="middle" font-family="Arial, sans-serif" font-size="15" font-weight="700">Precision / Recall / F1</text>
<line x1="550" y1="70" x2="550" y2="410" stroke="#333" stroke-width="1.2"/>
<line x1="550" y1="410" x2="930" y2="410" stroke="#333" stroke-width="1.2"/>
<line x1="545" y1="410.0" x2="930" y2="410.0" stroke="#e6e6e6" stroke-width="1"/>
<text x="536" y="414.0" text-anchor="end" font-family="Arial, sans-serif" font-size="11" fill="#555">0</text>
<line x1="545" y1="397.3" x2="930" y2="397.3" stroke="#e6e6e6" stroke-width="1"/>
<text x="536" y="401.3" text-anchor="end" font-family="Arial, sans-serif" font-size="11" fill="#555">2</text>
<line x1="545" y1="384.6" x2="930" y2="384.6" stroke="#e6e6e6" stroke-width="1"/>
<text x="536" y="388.6" text-anchor="end" font-family="Arial, sans-serif" font-size="11" fill="#555">4</text>
<line x1="545" y1="372.0" x2="930" y2="372.0" stroke="#e6e6e6" stroke-width="1"/>
<text x="536" y="376.0" text-anchor="end" font-family="Arial, sans-serif" font-size="11" fill="#555">6</text>
<line x1="545" y1="359.3" x2="930" y2="359.3" stroke="#e6e6e6" stroke-width="1"/>
<text x="536" y="363.3" text-anchor="end" font-family="Arial, sans-serif" font-size="11" fill="#555">8</text>
<line x1="545" y1="346.6" x2="930" y2="346.6" stroke="#e6e6e6" stroke-width="1"/>
<text x="536" y="350.6" text-anchor="end" font-family="Arial, sans-serif" font-size="11" fill="#555">10</text>
<line x1="545" y1="333.9" x2="930" y2="333.9" stroke="#e6e6e6" stroke-width="1"/>
<text x="536" y="337.9" text-anchor="end" font-family="Arial, sans-serif" font-size="11" fill="#555">12</text>
<line x1="545" y1="321.2" x2="930" y2="321.2" stroke="#e6e6e6" stroke-width="1"/>
<text x="536" y="325.2" text-anchor="end" font-family="Arial, sans-serif" font-size="11" fill="#555">14</text>
<line x1="545" y1="308.6" x2="930" y2="308.6" stroke="#e6e6e6" stroke-width="1"/>
<text x="536" y="312.6" text-anchor="end" font-family="Arial, sans-serif" font-size="11" fill="#555">16</text>
<line x1="545" y1="295.9" x2="930" y2="295.9" stroke="#e6e6e6" stroke-width="1"/>
<text x="536" y="299.9" text-anchor="end" font-family="Arial, sans-serif" font-size="11" fill="#555">18</text>
<line x1="545" y1="283.2" x2="930" y2="283.2" stroke="#e6e6e6" stroke-width="1"/>
<text x="536" y="287.2" text-anchor="end" font-family="Arial, sans-serif" font-size="11" fill="#555">20</text>
<line x1="545" y1="270.5" x2="930" y2="270.5" stroke="#e6e6e6" stroke-width="1"/>
<text x="536" y="274.5" text-anchor="end" font-family="Arial, sans-serif" font-size="11" fill="#555">22</text>
<line x1="545" y1="257.8" x2="930" y2="257.8" stroke="#e6e6e6" stroke-width="1"/>
<text x="536" y="261.8" text-anchor="end" font-family="Arial, sans-serif" font-size="11" fill="#555">24</text>
<line x1="545" y1="245.2" x2="930" y2="245.2" stroke="#e6e6e6" stroke-width="1"/>
<text x="536" y="249.2" text-anchor="end" font-family="Arial, sans-serif" font-size="11" fill="#555">26</text>
<line x1="545" y1="232.5" x2="930" y2="232.5" stroke="#e6e6e6" stroke-width="1"/>
<text x="536" y="236.5" text-anchor="end" font-family="Arial, sans-serif" font-size="11" fill="#555">28</text>
<line x1="545" y1="219.8" x2="930" y2="219.8" stroke="#e6e6e6" stroke-width="1"/>
<text x="536" y="223.8" text-anchor="end" font-family="Arial, sans-serif" font-size="11" fill="#555">30</text>
<line x1="545" y1="207.1" x2="930" y2="207.1" stroke="#e6e6e6" stroke-width="1"/>
<text x="536" y="211.1" text-anchor="end" font-family="Arial, sans-serif" font-size="11" fill="#555">32</text>
<line x1="545" y1="194.4" x2="930" y2="194.4" stroke="#e6e6e6" stroke-width="1"/>
<text x="536" y="198.4" text-anchor="end" font-family="Arial, sans-serif" font-size="11" fill="#555">34</text>
<line x1="545" y1="181.7" x2="930" y2="181.7" stroke="#e6e6e6" stroke-width="1"/>
<text x="536" y="185.7" text-anchor="end" font-family="Arial, sans-serif" font-size="11" fill="#555">36</text>
<line x1="545" y1="169.1" x2="930" y2="169.1" stroke="#e6e6e6" stroke-width="1"/>
<text x="536" y="173.1" text-anchor="end" font-family="Arial, sans-serif" font-size="11" fill="#555">38</text>
<line x1="545" y1="156.4" x2="930" y2="156.4" stroke="#e6e6e6" stroke-width="1"/>
<text x="536" y="160.4" text-anchor="end" font-family="Arial, sans-serif" font-size="11" fill="#555">40</text>
<line x1="545" y1="143.7" x2="930" y2="143.7" stroke="#e6e6e6" stroke-width="1"/>
<text x="536" y="147.7" text-anchor="end" font-family="Arial, sans-serif" font-size="11" fill="#555">42</text>
<line x1="545" y1="131.0" x2="930" y2="131.0" stroke="#e6e6e6" stroke-width="1"/>
<text x="536" y="135.0" text-anchor="end" font-family="Arial, sans-serif" font-size="11" fill="#555">44</text>
<line x1="545" y1="118.3" x2="930" y2="118.3" stroke="#e6e6e6" stroke-width="1"/>
<text x="536" y="122.3" text-anchor="end" font-family="Arial, sans-serif" font-size="11" fill="#555">46</text>
<line x1="545" y1="105.7" x2="930" y2="105.7" stroke="#e6e6e6" stroke-width="1"/>
<text x="536" y="109.7" text-anchor="end" font-family="Arial, sans-serif" font-size="11" fill="#555">48</text>
<line x1="545" y1="93.0" x2="930" y2="93.0" stroke="#e6e6e6" stroke-width="1"/>
<text x="536" y="97.0" text-anchor="end" font-family="Arial, sans-serif" font-size="11" fill="#555">50</text>
<line x1="545" y1="80.3" x2="930" y2="80.3" stroke="#e6e6e6" stroke-width="1"/>
<text x="536" y="84.3" text-anchor="end" font-family="Arial, sans-serif" font-size="11" fill="#555">52</text>
<line x1="545" y1="67.6" x2="930" y2="67.6" stroke="#e6e6e6" stroke-width="1"/>
<text x="536" y="71.6" text-anchor="end" font-family="Arial, sans-serif" font-size="11" fill="#555">54</text>
<rect x="577.9" y="340.7" width="69.7" height="69.3" fill="#ff7f0e" rx="2"/>
<text x="612.7" y="428" text-anchor="middle" font-family="Arial, sans-serif" font-size="11">bg-sub</text>
<text x="612.7" y="334.7" text-anchor="middle" font-family="Arial, sans-serif" font-size="11" fill="#333">10.94</text>
<rect x="704.5" y="368.8" width="69.7" height="41.2" fill="#1f77b4" rx="2"/>
<text x="739.4" y="428" text-anchor="middle" font-family="Arial, sans-serif" font-size="11">baseline</text>
<text x="739.4" y="362.8" text-anchor="middle" font-family="Arial, sans-serif" font-size="11" fill="#333">6.50</text>
<rect x="831.2" y="100.9" width="69.7" height="309.1" fill="#2ca02c" rx="2"/>
<text x="866.0" y="428" text-anchor="middle" font-family="Arial, sans-serif" font-size="11">temp-med</text>
<text x="866.0" y="94.9" text-anchor="middle" font-family="Arial, sans-serif" font-size="11" fill="#333">48.75</text>
<text x="740.0" y="452" text-anchor="middle" font-family="Arial, sans-serif" font-size="13">Branch</text>
<text x="740.0" y="54" text-anchor="middle" font-family="Arial, sans-serif" font-size="15" font-weight="700">Count MAE</text>
<rect x="60" y="490" width="16" height="16" fill="#1f77b4" fill-opacity="0.45" rx="2"/>
<text x="84" y="503" font-family="Arial, sans-serif" font-size="12">precision</text>
<rect x="180" y="490" width="16" height="16" fill="#1f77b4" fill-opacity="0.63" rx="2"/>
<text x="204" y="503" font-family="Arial, sans-serif" font-size="12">recall</text>
<rect x="300" y="490" width="16" height="16" fill="#1f77b4" fill-opacity="0.81" rx="2"/>
<text x="324" y="503" font-family="Arial, sans-serif" font-size="12">f1</text>
</svg>